<svg width="184" height="188" viewBox="0 0 184 188" fill="none" xmlns="http://www.w3.org/2000/svg">
<g filter="url(#filter0_d_42_14)">
<path d="M96.7188 179.988H71.9014L96.7188 89.6953V179.988ZM59.1035 135.107V31.375H4V0H96.2383L59.1035 135.107Z" fill="white"/>
<path d="M121.213 0.000915527C130.665 0.84487 139.856 2.61517 145.935 5.31244C154.782 9.23796 161.432 14.6869 165.885 21.6591C170.338 28.5728 172.564 36.5417 172.564 45.5644C172.564 52.595 171.157 58.776 168.345 64.1074C165.533 69.3805 161.666 73.7169 156.744 77.1152C151.882 80.4548 146.315 82.8273 140.046 84.2333V85.9911C146.901 86.2841 153.317 88.2179 159.293 91.7919C165.328 95.3659 170.22 100.375 173.97 106.82C177.72 113.206 179.595 120.823 179.595 129.67C179.595 139.22 177.221 147.745 172.476 155.244C167.789 162.685 160.846 168.574 151.648 172.909C142.449 177.245 121.883 179.237 108.407 179.237V148.302C119.012 148.302 128.153 146.28 133.016 142.237C137.879 138.136 140.31 132.687 140.31 125.891C140.31 120.91 139.108 116.516 136.706 112.708C134.304 108.9 130.877 105.912 126.424 103.744C122.03 101.576 114.501 99.9648 108.407 99.9648V74.83C113.622 74.83 116.844 73.8337 120.887 72.0175C124.988 70.1426 128.211 67.5056 130.555 64.1074C132.957 60.7093 134.158 56.6371 134.158 51.8915C134.158 45.388 131.843 40.1441 127.215 36.1601C123.488 32.9112 118.943 31.1042 112.818 30.5478L121.213 0.000915527Z" fill="white"/>
</g>
<defs>
<filter id="filter0_d_42_14" x="0" y="0" width="183.595" height="187.988" filterUnits="userSpaceOnUse" color-interpolation-filters="sRGB">
<feFlood flood-opacity="0" result="BackgroundImageFix"/>
<feColorMatrix in="SourceAlpha" type="matrix" values="0 0 0 0 0 0 0 0 0 0 0 0 0 0 0 0 0 0 127 0" result="hardAlpha"/>
<feOffset dy="4"/>
<feGaussianBlur stdDeviation="2"/>
<feComposite in2="hardAlpha" operator="out"/>
<feColorMatrix type="matrix" values="0 0 0 0 0 0 0 0 0 0 0 0 0 0 0 0 0 0 0.25 0"/>
<feBlend mode="normal" in2="BackgroundImageFix" result="effect1_dropShadow_42_14"/>
<feBlend mode="normal" in="SourceGraphic" in2="effect1_dropShadow_42_14" result="shape"/>
</filter>
</defs>
</svg>
